<?xml version="1.0" encoding="UTF-8"?>
<svg xmlns="http://www.w3.org/2000/svg" xmlns:xlink="http://www.w3.org/1999/xlink" width="25px" height="32px" viewBox="0 0 25 32" version="1.1">
<g id="surface1">
<path style="stroke:#24f29c;stroke-width:2;fill-rule:nonzero;fill:rgb(0%,0%,0%);fill-opacity:1;" d="M 7.386719 0.699219 L 7.386719 1.398438 L 5.996094 1.398438 L 5.996094 14.601562 L 4.578125 14.601562 L 4.578125 13.226562 L 0 13.226562 L 0 17.398438 L 1.417969 17.398438 L 1.417969 18.773438 L 2.808594 18.773438 L 2.8125 20.34375 L 2.820312 21.914062 L 3.703125 21.921875 L 4.578125 21.925781 L 4.578125 24.699219 L 5.996094 24.699219 L 5.996094 27.476562 L 7.386719 27.476562 L 7.386719 32 L 22.191406 32 L 22.191406 27.476562 L 23.582031 27.476562 L 23.582031 23.300781 L 25 23.300781 L 25 13.226562 L 23.582031 13.226562 L 23.582031 11.476562 L 22.191406 11.476562 L 22.1875 10.78125 L 22.179688 10.085938 L 20.59375 10.078125 L 19.003906 10.074219 L 19.003906 8.699219 L 14.773438 8.699219 L 14.777344 8.003906 L 14.78125 7.3125 L 13.199219 7.304688 L 11.613281 7.300781 L 11.613281 1.398438 L 10.914062 1.394531 L 10.21875 1.386719 L 10.222656 0.691406 L 10.226562 0 L 7.386719 0 Z M 7.386719 0.699219 "/>
</g>
</svg>
