<?xml version="1.0" encoding="UTF-8"?>
<svg xmlns="http://www.w3.org/2000/svg" xmlns:xlink="http://www.w3.org/1999/xlink" viewBox="0 0 30 30" width="30px" height="30px">
<g id="surface522709">
<path style=" stroke:none;fill-rule:nonzero;fill:rgb(32.549021%,42.745098%,99.607843%);fill-opacity:1;" d="M 15 2.5 C 8.109375 2.5 2.5 8.109375 2.5 15 C 2.5 21.890625 8.109375 27.5 15 27.5 C 21.890625 27.5 27.5 21.890625 27.5 15 C 27.5 8.109375 21.890625 2.5 15 2.5 Z M 15 4.375 C 20.878906 4.375 25.625 9.121094 25.625 15 C 25.625 20.878906 20.878906 25.625 15 25.625 C 9.121094 25.625 4.375 20.878906 4.375 15 C 4.375 9.121094 9.121094 4.375 15 4.375 Z M 19.054688 9.988281 C 18.804688 9.992188 18.570312 10.097656 18.398438 10.273438 L 15 13.675781 L 11.601562 10.273438 C 11.421875 10.09375 11.179688 9.992188 10.929688 9.988281 C 10.546875 9.992188 10.203125 10.222656 10.058594 10.574219 C 9.914062 10.929688 10 11.335938 10.273438 11.601562 L 13.675781 15 L 10.273438 18.398438 C 10.03125 18.636719 9.929688 18.984375 10.015625 19.3125 C 10.101562 19.640625 10.359375 19.898438 10.6875 19.984375 C 11.015625 20.070312 11.363281 19.96875 11.601562 19.726562 L 15 16.324219 L 18.398438 19.726562 C 18.636719 19.96875 18.984375 20.070312 19.3125 19.984375 C 19.640625 19.898438 19.898438 19.640625 19.984375 19.3125 C 20.070312 18.984375 19.96875 18.636719 19.726562 18.398438 L 16.324219 15 L 19.726562 11.601562 C 20.003906 11.332031 20.089844 10.921875 19.941406 10.5625 C 19.792969 10.207031 19.441406 9.976562 19.054688 9.988281 Z M 19.054688 9.988281 "/>
</g>
</svg>
