<svg width="20" height="20" viewBox="0 0 20 20" fill="none" xmlns="http://www.w3.org/2000/svg">
<g clip-path="url(#clip0_51_8)">
<path d="M12.2029 7.79552C11.966 7.5572 11.7033 7.34595 11.4198 7.16563C10.6687 6.68466 9.79545 6.42909 8.90354 6.42909C7.6656 6.42678 6.47796 6.91865 5.60413 7.79552L1.36489 12.0381C0.492549 12.9121 0.00224692 14.0963 0.00146581 15.3312C-0.00017452 17.908 2.08742 19.9983 4.6643 20C5.90033 20.0043 7.08687 19.5147 7.96039 18.6402L11.4598 15.1408C11.5233 15.0778 11.5588 14.9918 11.5583 14.9023C11.5573 14.7182 11.4072 14.5699 11.2231 14.5709H11.0898C10.3587 14.5735 9.63411 14.4331 8.95689 14.1577C8.83211 14.1063 8.68869 14.1353 8.59363 14.231L6.07741 16.7506C5.29606 17.5319 4.02926 17.5319 3.24791 16.7506C2.46657 15.9692 2.46657 14.7024 3.24791 13.9211L7.50383 9.6685C8.28455 8.88876 9.54928 8.88876 10.33 9.6685C10.8562 10.1637 11.6769 10.1637 12.203 9.6685C12.4294 9.44194 12.5666 9.14145 12.5896 8.82198C12.6139 8.44021 12.4731 8.06633 12.2029 7.79552Z" fill="white"/>
<path d="M18.6318 1.3669C16.8096 -0.455309 13.8552 -0.455309 12.033 1.3669L8.53691 4.8596C8.44091 4.95606 8.41322 5.10115 8.46692 5.22621C8.52 5.35162 8.64404 5.43211 8.78018 5.42949H8.90348C9.63374 5.42817 10.3572 5.56966 11.0331 5.8461C11.1579 5.89746 11.3013 5.86848 11.3964 5.77279L13.9059 3.26656C14.6872 2.48522 15.9541 2.48522 16.7354 3.26656C17.5167 4.04791 17.5167 5.31471 16.7354 6.09605L13.6093 9.21881L13.5826 9.24881L12.4895 10.3353C11.7088 11.115 10.444 11.115 9.66331 10.3353C9.13715 9.84011 8.31644 9.84011 7.79032 10.3353C7.56251 10.5636 7.42515 10.8667 7.40371 11.1885C7.37934 11.5702 7.52014 11.9441 7.79032 12.215C8.17607 12.6023 8.6274 12.9183 9.1234 13.1481C9.19339 13.1814 9.26338 13.2081 9.33337 13.2381C9.40335 13.2681 9.47666 13.2914 9.54665 13.3181C9.61664 13.3448 9.68994 13.3681 9.75993 13.3881L9.95657 13.4414C10.0899 13.4747 10.2232 13.5014 10.3598 13.5247C10.5244 13.5491 10.6902 13.5647 10.8564 13.5714H11.0897H11.1097L11.3097 13.548C11.383 13.5447 11.4596 13.528 11.5463 13.528H11.6596L11.8895 13.4947L11.9962 13.4747L12.1895 13.4347H12.2262C13.0448 13.2291 13.7923 12.8052 14.3891 12.2083L18.6317 7.96572C20.454 6.14351 20.454 3.18911 18.6318 1.3669Z" fill="white"/>
</g>
<defs>
<clipPath id="clip0_51_8">
<rect width="20" height="20" fill="white"/>
</clipPath>
</defs>
</svg>
