<?xml version="1.0" encoding="UTF-8"?>
<svg xmlns="http://www.w3.org/2000/svg" xmlns:xlink="http://www.w3.org/1999/xlink" viewBox="0 0 30 30" width="30px" height="30px">
<g id="surface524185">
<path style=" stroke:none;fill-rule:nonzero;fill:rgb(32.549021%,42.745098%,99.607843%);fill-opacity:1;" d="M 15 2.5 C 8.109375 2.5 2.5 8.109375 2.5 15 C 2.5 21.890625 8.109375 27.5 15 27.5 C 21.890625 27.5 27.5 21.890625 27.5 15 C 27.5 8.109375 21.890625 2.5 15 2.5 Z M 15 4.375 C 20.878906 4.375 25.625 9.121094 25.625 15 C 25.625 20.878906 20.878906 25.625 15 25.625 C 9.121094 25.625 4.375 20.878906 4.375 15 C 4.375 9.121094 9.121094 4.375 15 4.375 Z M 19.667969 11.242188 C 19.425781 11.25 19.195312 11.351562 19.023438 11.523438 L 13.4375 17.113281 L 10.976562 14.648438 C 10.738281 14.40625 10.390625 14.304688 10.0625 14.390625 C 9.734375 14.476562 9.476562 14.734375 9.390625 15.0625 C 9.304688 15.390625 9.40625 15.738281 9.648438 15.976562 L 12.773438 19.101562 C 13.140625 19.464844 13.734375 19.464844 14.101562 19.101562 L 20.351562 12.851562 C 20.628906 12.582031 20.710938 12.167969 20.558594 11.8125 C 20.410156 11.457031 20.054688 11.230469 19.667969 11.242188 Z M 19.667969 11.242188 "/>
</g>
</svg>
