<svg width="38" height="38" viewBox="0 0 38 38" fill="none" xmlns="http://www.w3.org/2000/svg">
<path d="M14.7614 9.61147L14.7618 9.61043C15.9708 6.54386 16.8204 4.39932 17.6095 3.00282C18.4355 1.54099 18.8647 1.5 19 1.5C19.1353 1.5 19.5645 1.54099 20.3905 3.00282C21.1795 4.39932 22.0292 6.54386 23.2381 9.61044L23.2386 9.61147L23.4915 10.2516C23.4915 10.2518 23.4916 10.252 23.4917 10.2522C23.5188 10.3208 23.5455 10.3888 23.572 10.4563C23.9658 11.459 24.313 12.343 24.9826 13.0145L24.9855 13.0173C25.657 13.687 26.541 14.0342 27.5436 14.428C27.6111 14.4545 27.6792 14.4812 27.7478 14.5083C27.748 14.5084 27.7482 14.5084 27.7484 14.5085L28.3885 14.7614L28.3895 14.7618C31.4561 15.9708 33.6007 16.8204 34.9972 17.6095C36.459 18.4355 36.5 18.8647 36.5 19C36.5 19.1352 36.459 19.5645 34.9972 20.3905C33.6007 21.1795 31.4561 22.0292 28.3895 23.2381L28.3885 23.2386L27.7484 23.4915C27.7484 23.4915 27.7483 23.4915 27.7483 23.4915C27.7481 23.4916 27.7479 23.4916 27.7478 23.4917C27.6792 23.5188 27.6111 23.5455 27.5436 23.572C26.541 23.9658 25.657 24.313 24.9855 24.9826L24.9826 24.9855C24.313 25.657 23.9658 26.541 23.572 27.5436C23.5455 27.6111 23.5188 27.6792 23.4917 27.7478C23.4916 27.748 23.4915 27.7482 23.4915 27.7484L23.2386 28.3885L23.2381 28.3895C22.0292 31.4561 21.1795 33.6007 20.3905 34.9972C19.5645 36.459 19.1352 36.5 19 36.5C18.8647 36.5 18.4355 36.459 17.6095 34.9972C16.8204 33.6007 15.9708 31.4561 14.7618 28.3895L14.7614 28.3885L14.5085 27.7484C14.5085 27.7484 14.5085 27.7483 14.5085 27.7483C14.5084 27.7481 14.5084 27.7479 14.5083 27.7478C14.4812 27.6792 14.4545 27.6111 14.428 27.5436C14.0342 26.541 13.687 25.657 13.0173 24.9855L13.0145 24.9826C12.343 24.313 11.459 23.9658 10.4564 23.572C10.3889 23.5455 10.3208 23.5188 10.2522 23.4917C10.252 23.4916 10.2518 23.4915 10.2516 23.4915L9.61147 23.2386L9.61043 23.2381C6.54386 22.0292 4.39932 21.1795 3.00282 20.3905C1.54099 19.5645 1.5 19.1353 1.5 19C1.5 18.8647 1.54099 18.4355 3.00282 17.6095C4.39932 16.8204 6.54386 15.9708 9.61044 14.7618L9.61147 14.7614L10.2516 14.5085C10.2518 14.5085 10.2519 14.5084 10.2521 14.5083C10.2521 14.5083 10.2522 14.5083 10.2522 14.5083C10.3208 14.4812 10.3888 14.4545 10.4564 14.428C11.459 14.0342 12.343 13.687 13.0145 13.0173L13.0173 13.0145C13.687 12.343 14.0342 11.459 14.428 10.4564C14.4545 10.3888 14.4812 10.3208 14.5083 10.2522C14.5083 10.2522 14.5083 10.2521 14.5083 10.2521C14.5084 10.2519 14.5085 10.2518 14.5085 10.2516L14.7614 9.61147Z" fill="white" stroke="#637BFF" stroke-width="3"/>
</svg>
