<?xml version="1.0" encoding="UTF-8"?>
<svg xmlns="http://www.w3.org/2000/svg" xmlns:xlink="http://www.w3.org/1999/xlink" viewBox="0 0 30 30" width="30px" height="30px">
<g id="surface858295">
<path style=" stroke:none;fill-rule:nonzero;fill:rgb(100%,100%,100%);fill-opacity:1;" d="M 14.984375 2.488281 C 14.46875 2.496094 14.054688 2.921875 14.0625 3.4375 L 14.0625 5.3125 C 14.058594 5.652344 14.234375 5.964844 14.527344 6.136719 C 14.820312 6.304688 15.179688 6.304688 15.472656 6.136719 C 15.765625 5.964844 15.941406 5.652344 15.9375 5.3125 L 15.9375 3.4375 C 15.941406 3.183594 15.84375 2.941406 15.664062 2.761719 C 15.484375 2.582031 15.238281 2.484375 14.984375 2.488281 Z M 6.8125 5.878906 C 6.433594 5.878906 6.089844 6.109375 5.945312 6.460938 C 5.800781 6.816406 5.886719 7.222656 6.160156 7.488281 L 7.488281 8.8125 C 7.851562 9.179688 8.445312 9.179688 8.8125 8.8125 C 9.179688 8.445312 9.179688 7.851562 8.8125 7.488281 L 7.488281 6.160156 C 7.3125 5.980469 7.066406 5.878906 6.8125 5.878906 Z M 23.15625 5.878906 C 22.914062 5.886719 22.683594 5.988281 22.511719 6.160156 L 21.1875 7.488281 C 20.820312 7.851562 20.820312 8.445312 21.1875 8.8125 C 21.554688 9.179688 22.148438 9.179688 22.511719 8.8125 L 23.839844 7.488281 C 24.117188 7.21875 24.199219 6.804688 24.050781 6.449219 C 23.898438 6.09375 23.542969 5.867188 23.15625 5.878906 Z M 15 8.125 C 11.214844 8.125 8.125 11.214844 8.125 15 C 8.125 18.785156 11.214844 21.875 15 21.875 C 18.785156 21.875 21.875 18.785156 21.875 15 C 21.875 11.214844 18.785156 8.125 15 8.125 Z M 15 10 C 17.773438 10 20 12.226562 20 15 C 20 17.773438 17.773438 20 15 20 C 12.226562 20 10 17.773438 10 15 C 10 12.226562 12.226562 10 15 10 Z M 3.4375 14.0625 C 3.097656 14.058594 2.785156 14.234375 2.613281 14.527344 C 2.445312 14.820312 2.445312 15.179688 2.613281 15.472656 C 2.785156 15.765625 3.097656 15.941406 3.4375 15.9375 L 5.3125 15.9375 C 5.652344 15.941406 5.964844 15.765625 6.136719 15.472656 C 6.304688 15.179688 6.304688 14.820312 6.136719 14.527344 C 5.964844 14.234375 5.652344 14.058594 5.3125 14.0625 Z M 24.6875 14.0625 C 24.347656 14.058594 24.035156 14.234375 23.863281 14.527344 C 23.695312 14.820312 23.695312 15.179688 23.863281 15.472656 C 24.035156 15.765625 24.347656 15.941406 24.6875 15.9375 L 26.5625 15.9375 C 26.902344 15.941406 27.214844 15.765625 27.386719 15.472656 C 27.554688 15.179688 27.554688 14.820312 27.386719 14.527344 C 27.214844 14.234375 26.902344 14.058594 26.5625 14.0625 Z M 8.132812 20.902344 C 7.886719 20.910156 7.65625 21.011719 7.488281 21.1875 L 6.160156 22.511719 C 5.921875 22.75 5.832031 23.09375 5.917969 23.417969 C 6.003906 23.742188 6.257812 23.996094 6.582031 24.082031 C 6.90625 24.167969 7.25 24.078125 7.488281 23.839844 L 8.8125 22.511719 C 9.089844 22.242188 9.175781 21.832031 9.023438 21.472656 C 8.871094 21.117188 8.519531 20.890625 8.132812 20.902344 Z M 21.839844 20.902344 C 21.457031 20.902344 21.113281 21.136719 20.972656 21.488281 C 20.828125 21.84375 20.914062 22.246094 21.1875 22.511719 L 22.511719 23.839844 C 22.878906 24.207031 23.472656 24.207031 23.839844 23.839844 C 24.207031 23.472656 24.207031 22.878906 23.839844 22.511719 L 22.511719 21.1875 C 22.335938 21.003906 22.09375 20.902344 21.839844 20.902344 Z M 14.984375 23.738281 C 14.46875 23.746094 14.054688 24.171875 14.0625 24.6875 L 14.0625 26.5625 C 14.058594 26.902344 14.234375 27.214844 14.527344 27.386719 C 14.820312 27.554688 15.179688 27.554688 15.472656 27.386719 C 15.765625 27.214844 15.941406 26.902344 15.9375 26.5625 L 15.9375 24.6875 C 15.941406 24.433594 15.84375 24.191406 15.664062 24.011719 C 15.484375 23.832031 15.238281 23.734375 14.984375 23.738281 Z M 14.984375 23.738281 "/>
</g>
</svg>
