<svg width="40" height="40" viewBox="0 0 40 40" fill="none" xmlns="http://www.w3.org/2000/svg">
<path d="M20 0C8.95427 0 0 8.95427 0 20C0 31.0457 8.95427 40 20 40C31.0457 40 40 31.0457 40 20C40 8.95427 31.0457 0 20 0ZM29.2703 13.6016C28.9694 16.7641 27.667 24.4385 27.0042 27.9806C26.7239 29.4794 26.1718 29.9819 25.6374 30.031C24.4761 30.138 23.594 29.2635 22.4691 28.5261C20.7089 27.3723 19.7144 26.6539 18.0057 25.528C16.0311 24.2268 17.3112 23.5119 18.4365 22.3425C18.731 22.0366 23.8484 17.382 23.9474 16.9598C23.9598 16.9069 23.9716 16.7098 23.8544 16.6062C23.7371 16.5027 23.5648 16.5377 23.4402 16.5659C23.2637 16.606 20.4517 18.4646 15.0041 22.1419C14.206 22.6899 13.483 22.957 12.8352 22.943C12.1211 22.9276 10.7475 22.5393 9.72629 22.2073C8.47379 21.8002 7.47831 21.5849 7.565 20.8935C7.61016 20.5333 8.10613 20.165 9.0529 19.7886C14.8833 17.2484 18.7712 15.5737 20.7165 14.7644C26.2706 12.4542 27.4248 12.0529 28.177 12.0395C28.3425 12.0368 28.7124 12.0777 28.952 12.2722C29.1114 12.4107 29.213 12.604 29.2367 12.8138C29.2773 13.0743 29.2886 13.3386 29.2703 13.6016Z" fill="#8C8C8C"/>
</svg>
