<svg width="40" height="40" viewBox="0 0 40 40" fill="none" xmlns="http://www.w3.org/2000/svg">
<path d="M2.81167 2.81167C0 5.62333 0 10.1492 0 19.2V20.8C0 29.8508 0 34.3767 2.81167 37.1883C5.62333 40 10.1492 40 19.2 40H20.8C29.8508 40 34.3767 40 37.1883 37.1883C40 34.3767 40 29.8508 40 20.8V19.2C40 10.1492 40 5.62333 37.1883 2.81167C34.3767 0 29.8508 0 20.8 0H19.2C10.1492 0 5.62333 0 2.81167 2.81167ZM6.75 12.1667H11.3167C11.4667 19.8 14.8333 23.0333 17.5 23.7V12.1667H21.8V18.75C24.4333 18.4667 27.2 15.4667 28.1333 12.1667H32.4333C32.0815 13.8781 31.3804 15.4985 30.3738 16.9267C29.3672 18.3548 28.0769 19.5599 26.5833 20.4667C28.2509 21.2946 29.7238 22.467 30.9046 23.9063C32.0854 25.3458 32.9473 27.0195 33.4333 28.8167H28.7C28.2638 27.2555 27.3762 25.858 26.1487 24.7995C24.9212 23.741 23.4083 23.0686 21.8 22.8667V28.8167H21.2833C12.1667 28.8167 6.96667 22.5667 6.75 12.1667Z" fill="#8C8C8C"/>
</svg>
